# xmcd
#
# Track frame offsets: 
#        150
#        16347
#        19477
#        29272
#        31637
#        44935
#        46617
#        57207
#        59035
#        71005
#        73435
#        86422
#        88955
#        100612
#        103867
#        118640
#        121057
#        133380
#        134577
#        145457
#        145832
#
# Disc length: 2234 seconds
#
# Revision: 0
# Processed by: cddbd v1.4PL0 Copyright (c) Steve Scherf et al.
# Submitted via: ExactAudioCopy v0.90b3
#
DISCID=4208b815
DTITLE=Waylon Jennings - A Man Called Hoss
DYEAR=1900
DGENRE=Country
TTITLE0=Prologue
TTITLE1=Chapter 01...Childhood - Intro
TTITLE2=Chapter 01...Childhood - Littlefield
TTITLE3=Chapter 02...Texas - Intro
TTITLE4=Chapter 02...Texas - You'll Never Take Texas Out Of Me
TTITLE5=Chapter 03...First Love - Intro
TTITLE6=Chapter 03...First Love - You Went Out With Rock And Roll
TTITLE7=Chapter 04...Lost Love - Intro
TTITLE8=Chapter 04...Lost Love - A Love Song (I Can't Sing Anymore)
TTITLE9=Chapter 05...Nashville - Intro
TTITLE10=Chapter 05...Nashville - If Ole Hank Could Only See Us Now
TTITLE11=Chapter 06...Crazies - Intro
TTITLE12=Chapter 06...Crazies - Rough And Rowdy Days
TTITLE13=Chapter 07...Drugs - Intro
TTITLE14=Chapter 07...Drugs - I'm Living Proof (There's Life After You
TTITLE14=)
TTITLE15=Chapter 08...Jessi - Intro
TTITLE16=Chapter 08...Jessi - You Deserve The Stars In My Crown
TTITLE17=Chapter 09...Reflections - Intro
TTITLE18=Chapter 09...Reflections - Turn It All Around
TTITLE19=Chapter 10...The Beginning - Intro
TTITLE20=Chapter 10...The Beginning - Where Do We Go From Here
EXTD=
EXTT0=
EXTT1=
EXTT2=
EXTT3=
EXTT4=
EXTT5=
EXTT6=
EXTT7=
EXTT8=
EXTT9=
EXTT10=
EXTT11=
EXTT12=
EXTT13=
EXTT14=
EXTT15=
EXTT16=
EXTT17=
EXTT18=
EXTT19=
EXTT20=
PLAYORDER=
